<svg xmlns="http://www.w3.org/2000/svg" viewBox="0 0 520 420" fill="none">
  <!-- Light background elements -->
  <rect x="20" y="20" width="480" height="380" rx="24" fill="#f0f9ff" stroke="#e0f2fe" stroke-width="1"/>

  <!-- Header bar -->
  <rect x="20" y="20" width="480" height="52" rx="24" fill="#dbeafe" stroke="none"/>
  <rect x="20" y="52" width="480" height="20" fill="#dbeafe" stroke="none"/>
  <circle cx="52" cy="46" r="8" fill="#3b82f6"/>
  <path d="M49 43 L52 40 L55 43 L55 49 L52 52 L49 49 Z" fill="white" opacity="0.9" transform="scale(0.7) translate(21 17)"/>
  <rect x="52" y="46" width="3" height="5" rx="1" fill="white" transform="translate(-1.5 -2.5)"/>
  <text x="70" y="51" font-family="system-ui, sans-serif" font-size="13" font-weight="700" fill="#1e40af">SiteLock Dashboard</text>
  <circle cx="460" cy="46" r="6" fill="#10b981"/>
  <text x="434" y="50" font-family="system-ui, sans-serif" font-size="10" fill="#065f46" font-weight="600">CANLI</text>

  <!-- Stats row -->
  <rect x="36" y="90" width="132" height="72" rx="14" fill="white" stroke="#e2e8f0" stroke-width="1"/>
  <text x="52" y="115" font-family="system-ui, sans-serif" font-size="22" font-weight="800" fill="#10b981">1M+</text>
  <text x="52" y="132" font-family="system-ui, sans-serif" font-size="10" fill="#64748b">Korunan Site</text>
  <rect x="52" y="140" width="80" height="4" rx="2" fill="#dcfce7"/>
  <rect x="52" y="140" width="64" height="4" rx="2" fill="#10b981"/>

  <rect x="180" y="90" width="132" height="72" rx="14" fill="white" stroke="#e2e8f0" stroke-width="1"/>
  <text x="196" y="115" font-family="system-ui, sans-serif" font-size="22" font-weight="800" fill="#3b82f6">250K+</text>
  <text x="196" y="132" font-family="system-ui, sans-serif" font-size="10" fill="#64748b">Temizlenen Malware</text>
  <rect x="196" y="140" width="80" height="4" rx="2" fill="#dbeafe"/>
  <rect x="196" y="140" width="52" height="4" rx="2" fill="#3b82f6"/>

  <rect x="324" y="90" width="160" height="72" rx="14" fill="white" stroke="#e2e8f0" stroke-width="1"/>
  <text x="340" y="115" font-family="system-ui, sans-serif" font-size="22" font-weight="800" fill="#8b5cf6">7/24</text>
  <text x="340" y="132" font-family="system-ui, sans-serif" font-size="10" fill="#64748b">Aktif İzleme</text>
  <circle cx="420" cy="110" r="18" fill="#f5f3ff"/>
  <path d="M420 97 L420 110 L428 115" stroke="#8b5cf6" stroke-width="2" stroke-linecap="round" stroke-linejoin="round"/>

  <!-- Scan activity section -->
  <rect x="36" y="178" width="290" height="110" rx="14" fill="white" stroke="#e2e8f0" stroke-width="1"/>
  <text x="52" y="200" font-family="system-ui, sans-serif" font-size="11" font-weight="700" fill="#334155">Tarama Aktivitesi</text>

  <!-- Bar chart -->
  <rect x="52" y="246" width="16" height="28" rx="3" fill="#bfdbfe"/>
  <rect x="52" y="238" width="16" height="36" rx="3" fill="#3b82f6"/>
  <rect x="76" y="250" width="16" height="24" rx="3" fill="#bfdbfe"/>
  <rect x="76" y="244" width="16" height="30" rx="3" fill="#3b82f6"/>
  <rect x="100" y="235" width="16" height="39" rx="3" fill="#bfdbfe"/>
  <rect x="100" y="228" width="16" height="46" rx="3" fill="#3b82f6"/>
  <rect x="124" y="242" width="16" height="32" rx="3" fill="#bfdbfe"/>
  <rect x="124" y="236" width="16" height="38" rx="3" fill="#3b82f6"/>
  <rect x="148" y="238" width="16" height="36" rx="3" fill="#bfdbfe"/>
  <rect x="148" y="230" width="16" height="44" rx="3" fill="#10b981" opacity="0.8"/>
  <rect x="172" y="244" width="16" height="30" rx="3" fill="#bfdbfe"/>
  <rect x="172" y="238" width="16" height="36" rx="3" fill="#3b82f6"/>
  <rect x="196" y="240" width="16" height="34" rx="3" fill="#bfdbfe"/>
  <rect x="196" y="233" width="16" height="41" rx="3" fill="#3b82f6"/>
  <line x1="52" y1="274" x2="280" y2="274" stroke="#e2e8f0" stroke-width="1"/>

  <!-- Threat list section -->
  <rect x="340" y="178" width="144" height="110" rx="14" fill="white" stroke="#e2e8f0" stroke-width="1"/>
  <text x="356" y="200" font-family="system-ui, sans-serif" font-size="11" font-weight="700" fill="#334155">Son Tehditler</text>
  <!-- Threat items -->
  <circle cx="360" cy="220" r="5" fill="#ef444420"/>
  <circle cx="360" cy="220" r="3" fill="#ef4444"/>
  <text x="370" y="224" font-family="system-ui, sans-serif" font-size="9" fill="#64748b">SQL Injection</text>
  <text x="430" y="224" font-family="system-ui, sans-serif" font-size="8" fill="#10b981" font-weight="600">Engellendi</text>

  <circle cx="360" cy="240" r="5" fill="#f59e0b20"/>
  <circle cx="360" cy="240" r="3" fill="#f59e0b"/>
  <text x="370" y="244" font-family="system-ui, sans-serif" font-size="9" fill="#64748b">XSS Denemesi</text>
  <text x="430" y="244" font-family="system-ui, sans-serif" font-size="8" fill="#10b981" font-weight="600">Engellendi</text>

  <circle cx="360" cy="260" r="5" fill="#8b5cf620"/>
  <circle cx="360" cy="260" r="3" fill="#8b5cf6"/>
  <text x="370" y="264" font-family="system-ui, sans-serif" font-size="9" fill="#64748b">Brute Force</text>
  <text x="430" y="264" font-family="system-ui, sans-serif" font-size="8" fill="#10b981" font-weight="600">Engellendi</text>

  <!-- Bottom status row -->
  <rect x="36" y="304" width="468" height="50" rx="14" fill="white" stroke="#e2e8f0" stroke-width="1"/>
  <!-- Site status items -->
  <circle cx="60" cy="329" r="5" fill="#10b981"/>
  <text x="72" y="333" font-family="system-ui, sans-serif" font-size="10" fill="#334155" font-weight="600">ornek.com.tr</text>
  <text x="148" y="333" font-family="system-ui, sans-serif" font-size="10" fill="#10b981">● Güvenli</text>

  <circle cx="220" cy="329" r="5" fill="#10b981"/>
  <text x="232" y="333" font-family="system-ui, sans-serif" font-size="10" fill="#334155" font-weight="600">site2.com</text>
  <text x="290" y="333" font-family="system-ui, sans-serif" font-size="10" fill="#10b981">● Güvenli</text>

  <circle cx="350" cy="329" r="5" fill="#f59e0b"/>
  <text x="362" y="333" font-family="system-ui, sans-serif" font-size="10" fill="#334155" font-weight="600">test.net</text>
  <text x="406" y="333" font-family="system-ui, sans-serif" font-size="10" fill="#f59e0b">● Taranıyor</text>

  <!-- Footer label -->
  <text x="36" y="380" font-family="system-ui, sans-serif" font-size="10" fill="#94a3b8">Son güncelleme: 2 dakika önce</text>
  <circle cx="460" cy="374" r="4" fill="#10b981" opacity="0.8"/>
  <text x="420" y="378" font-family="system-ui, sans-serif" font-size="9" fill="#10b981">Canlı</text>
</svg>
